<svg width="85" height="85" viewBox="0 0 85 85" fill="none" xmlns="http://www.w3.org/2000/svg">
<g filter="url(#filter0_d_7_37)">
<path fill-rule="evenodd" clip-rule="evenodd" d="M4 38.5C4 20.3511 4 11.2766 9.6364 5.6364C15.2805 0 24.3511 0 42.5 0C60.6489 0 69.7234 0 75.3597 5.6364C81 11.2805 81 20.3511 81 38.5C81 56.6489 81 65.7234 75.3597 71.3597C69.7272 77 60.6489 77 42.5 77C24.3511 77 15.2766 77 9.6364 71.3597C4 65.7272 4 56.6489 4 38.5ZM57.6497 13.8292C58.1809 14.0456 58.6356 14.4153 58.9558 14.8912C59.276 15.3671 59.4473 15.9275 59.4477 16.5011V26.9539C59.4477 27.7197 59.1435 28.4541 58.602 28.9956C58.0605 29.5371 57.326 29.8414 56.5602 29.8414H46.35C45.7817 29.8417 45.2259 29.6743 44.7523 29.3601C44.2787 29.046 43.9084 28.5991 43.6876 28.0754C43.4669 27.5517 43.4056 26.9745 43.5114 26.4161C43.6172 25.8578 43.8855 25.343 44.2826 24.9365L47.2163 21.9334C44.3827 21.0629 41.3635 20.9937 38.4931 21.7338C35.6227 22.4738 33.0133 23.9941 30.9539 26.1261C24.5321 32.6981 24.5321 43.3856 30.9539 49.9576C32.4508 51.5078 34.2446 52.7407 36.2283 53.5828C38.212 54.4249 40.345 54.8588 42.5 54.8588C44.655 54.8588 46.788 54.4249 48.7717 53.5828C50.7554 52.7407 52.5492 51.5078 54.0461 49.9576C56.5753 47.3649 58.2055 44.0289 58.697 40.4404C58.9202 38.8311 60.1984 37.4759 61.8231 37.4759C63.3862 37.4759 64.6798 38.7271 64.5297 40.2826C64.0405 45.4451 61.7987 50.2846 58.1772 53.9962C56.1423 56.0971 53.7059 57.7675 51.0128 58.9083C48.3197 60.049 45.4248 60.6369 42.5 60.6369C39.5752 60.6369 36.6803 60.049 33.9872 58.9083C31.2941 57.7675 28.8577 56.0971 26.8228 53.9962C18.2104 45.1797 18.2104 30.9078 26.8228 22.0913C29.9639 18.8459 34.0349 16.6555 38.474 15.8225C42.913 14.9894 47.5012 15.5548 51.6052 17.4405L54.4927 14.4837C54.8942 14.073 55.409 13.7914 55.9714 13.6748C56.5338 13.5582 57.1181 13.612 57.6497 13.8292Z" fill="white"/>
</g>
<defs>
<filter id="filter0_d_7_37" x="0" y="0" width="85" height="85" filterUnits="userSpaceOnUse" color-interpolation-filters="sRGB">
<feFlood flood-opacity="0" result="BackgroundImageFix"/>
<feColorMatrix in="SourceAlpha" type="matrix" values="0 0 0 0 0 0 0 0 0 0 0 0 0 0 0 0 0 0 127 0" result="hardAlpha"/>
<feOffset dy="4"/>
<feGaussianBlur stdDeviation="2"/>
<feComposite in2="hardAlpha" operator="out"/>
<feColorMatrix type="matrix" values="0 0 0 0 0 0 0 0 0 0 0 0 0 0 0 0 0 0 0.25 0"/>
<feBlend mode="normal" in2="BackgroundImageFix" result="effect1_dropShadow_7_37"/>
<feBlend mode="normal" in="SourceGraphic" in2="effect1_dropShadow_7_37" result="shape"/>
</filter>
</defs>
</svg>
